<mxfile host="Electron" modified="2023-12-21T16:31:50.344Z" agent="Mozilla/5.0 (Windows NT 10.0; Win64; x64) AppleWebKit/537.36 (KHTML, like Gecko) draw.io/22.1.2 Chrome/114.0.5735.289 Electron/25.9.4 Safari/537.36" etag="p9c2rlynsrXAYjXamPhj" version="22.1.2" type="device">
  <diagram name="Page-1" id="0rfhyAqkXM4dqvv0ARgQ">
    <mxGraphModel dx="1147" dy="734" grid="1" gridSize="10" guides="1" tooltips="1" connect="1" arrows="1" fold="1" page="1" pageScale="1" pageWidth="827" pageHeight="583" math="0" shadow="0">
      <root>
        <mxCell id="0" />
        <mxCell id="1" parent="0" />
        <mxCell id="NWOTXmCQD8BNrwnp2sz9-5" value="&lt;font style=&quot;font-size: 20px;&quot;&gt;Client&lt;/font&gt;" style="text;html=1;align=center;verticalAlign=middle;resizable=0;points=[];autosize=1;strokeColor=none;fillColor=none;" vertex="1" parent="1">
          <mxGeometry x="130" y="20" width="70" height="40" as="geometry" />
        </mxCell>
        <mxCell id="NWOTXmCQD8BNrwnp2sz9-6" value="&lt;font style=&quot;font-size: 20px;&quot;&gt;Vendeur&lt;/font&gt;" style="text;html=1;align=center;verticalAlign=middle;resizable=0;points=[];autosize=1;strokeColor=none;fillColor=none;" vertex="1" parent="1">
          <mxGeometry x="300" y="20" width="100" height="40" as="geometry" />
        </mxCell>
        <mxCell id="NWOTXmCQD8BNrwnp2sz9-7" value="&lt;font style=&quot;font-size: 20px;&quot;&gt;Responsable&lt;br&gt;entrepôt&lt;br&gt;&lt;/font&gt;" style="text;html=1;align=center;verticalAlign=middle;resizable=0;points=[];autosize=1;strokeColor=none;fillColor=none;" vertex="1" parent="1">
          <mxGeometry x="480" y="10" width="140" height="60" as="geometry" />
        </mxCell>
        <mxCell id="NWOTXmCQD8BNrwnp2sz9-8" value="&lt;font style=&quot;font-size: 20px;&quot;&gt;Caissier&lt;br&gt;&lt;/font&gt;" style="text;html=1;align=center;verticalAlign=middle;resizable=0;points=[];autosize=1;strokeColor=none;fillColor=none;" vertex="1" parent="1">
          <mxGeometry x="680" y="20" width="100" height="40" as="geometry" />
        </mxCell>
        <mxCell id="NWOTXmCQD8BNrwnp2sz9-9" value="" style="ellipse;whiteSpace=wrap;html=1;aspect=fixed;fillColor=#000000;" vertex="1" parent="1">
          <mxGeometry x="42" y="144" width="20" height="20" as="geometry" />
        </mxCell>
        <mxCell id="NWOTXmCQD8BNrwnp2sz9-10" value="" style="endArrow=open;html=1;rounded=0;endFill=0;exitX=1;exitY=0.5;exitDx=0;exitDy=0;entryX=0;entryY=0.5;entryDx=0;entryDy=0;entryPerimeter=0;" edge="1" parent="1" source="NWOTXmCQD8BNrwnp2sz9-9" target="NWOTXmCQD8BNrwnp2sz9-11">
          <mxGeometry width="50" height="50" relative="1" as="geometry">
            <mxPoint x="160" y="200" as="sourcePoint" />
            <mxPoint x="150" y="154" as="targetPoint" />
          </mxGeometry>
        </mxCell>
        <mxCell id="NWOTXmCQD8BNrwnp2sz9-11" value="&lt;font style=&quot;font-size: 10px;&quot;&gt;Commander&lt;br&gt;un produit&lt;/font&gt;" style="strokeWidth=2;html=1;shape=mxgraph.flowchart.terminator;whiteSpace=wrap;" vertex="1" parent="1">
          <mxGeometry x="125" y="129" width="80" height="50" as="geometry" />
        </mxCell>
        <mxCell id="NWOTXmCQD8BNrwnp2sz9-12" value="&lt;font style=&quot;font-size: 10px;&quot;&gt;Traiter la&lt;br&gt;commande du&lt;br&gt;client&lt;/font&gt;" style="strokeWidth=2;html=1;shape=mxgraph.flowchart.terminator;whiteSpace=wrap;" vertex="1" parent="1">
          <mxGeometry x="310" y="165" width="80" height="50" as="geometry" />
        </mxCell>
        <mxCell id="NWOTXmCQD8BNrwnp2sz9-13" value="&lt;span style=&quot;font-size: 10px;&quot;&gt;Sortir les&lt;br&gt;produits&lt;br&gt;&lt;/span&gt;" style="strokeWidth=2;html=1;shape=mxgraph.flowchart.terminator;whiteSpace=wrap;" vertex="1" parent="1">
          <mxGeometry x="510" y="205" width="80" height="50" as="geometry" />
        </mxCell>
        <mxCell id="NWOTXmCQD8BNrwnp2sz9-14" value="&lt;span style=&quot;font-size: 10px;&quot;&gt;Expédier la&lt;br&gt;commande&lt;br&gt;&lt;/span&gt;" style="strokeWidth=2;html=1;shape=mxgraph.flowchart.terminator;whiteSpace=wrap;" vertex="1" parent="1">
          <mxGeometry x="510" y="292" width="80" height="50" as="geometry" />
        </mxCell>
        <mxCell id="NWOTXmCQD8BNrwnp2sz9-15" value="&lt;span style=&quot;font-size: 10px;&quot;&gt;Facturer la&lt;br&gt;commande au&lt;br&gt;client&lt;br&gt;&lt;/span&gt;" style="strokeWidth=2;html=1;shape=mxgraph.flowchart.terminator;whiteSpace=wrap;" vertex="1" parent="1">
          <mxGeometry x="310" y="334" width="80" height="50" as="geometry" />
        </mxCell>
        <mxCell id="NWOTXmCQD8BNrwnp2sz9-16" value="&lt;span style=&quot;font-size: 10px;&quot;&gt;Payer la&lt;br&gt;facture&lt;br&gt;&lt;/span&gt;" style="strokeWidth=2;html=1;shape=mxgraph.flowchart.terminator;whiteSpace=wrap;" vertex="1" parent="1">
          <mxGeometry x="130" y="375" width="80" height="50" as="geometry" />
        </mxCell>
        <mxCell id="NWOTXmCQD8BNrwnp2sz9-17" value="&lt;span style=&quot;font-size: 10px;&quot;&gt;Encaisser l&#39;argent du&lt;br&gt;client&lt;br&gt;&lt;/span&gt;" style="strokeWidth=2;html=1;shape=mxgraph.flowchart.terminator;whiteSpace=wrap;" vertex="1" parent="1">
          <mxGeometry x="690" y="414" width="80" height="50" as="geometry" />
        </mxCell>
        <mxCell id="NWOTXmCQD8BNrwnp2sz9-18" value="" style="endArrow=open;html=1;rounded=0;endFill=0;exitX=0.5;exitY=1;exitDx=0;exitDy=0;entryX=0;entryY=0.5;entryDx=0;entryDy=0;entryPerimeter=0;exitPerimeter=0;" edge="1" parent="1" source="NWOTXmCQD8BNrwnp2sz9-11" target="NWOTXmCQD8BNrwnp2sz9-12">
          <mxGeometry width="50" height="50" relative="1" as="geometry">
            <mxPoint x="72" y="164" as="sourcePoint" />
            <mxPoint x="135" y="164" as="targetPoint" />
            <Array as="points">
              <mxPoint x="165" y="190" />
            </Array>
          </mxGeometry>
        </mxCell>
        <mxCell id="NWOTXmCQD8BNrwnp2sz9-19" value="" style="endArrow=open;html=1;rounded=0;endFill=0;exitX=0.5;exitY=1;exitDx=0;exitDy=0;entryX=0;entryY=0.5;entryDx=0;entryDy=0;entryPerimeter=0;exitPerimeter=0;" edge="1" parent="1" source="NWOTXmCQD8BNrwnp2sz9-12" target="NWOTXmCQD8BNrwnp2sz9-13">
          <mxGeometry width="50" height="50" relative="1" as="geometry">
            <mxPoint x="175" y="189" as="sourcePoint" />
            <mxPoint x="320" y="200" as="targetPoint" />
            <Array as="points">
              <mxPoint x="350" y="230" />
            </Array>
          </mxGeometry>
        </mxCell>
        <mxCell id="NWOTXmCQD8BNrwnp2sz9-20" value="" style="endArrow=open;html=1;rounded=0;endFill=0;exitX=0.5;exitY=1;exitDx=0;exitDy=0;entryX=0.5;entryY=0;entryDx=0;entryDy=0;entryPerimeter=0;exitPerimeter=0;" edge="1" parent="1" source="NWOTXmCQD8BNrwnp2sz9-13" target="NWOTXmCQD8BNrwnp2sz9-14">
          <mxGeometry width="50" height="50" relative="1" as="geometry">
            <mxPoint x="72" y="164" as="sourcePoint" />
            <mxPoint x="135" y="164" as="targetPoint" />
          </mxGeometry>
        </mxCell>
        <mxCell id="NWOTXmCQD8BNrwnp2sz9-21" value="" style="endArrow=open;html=1;rounded=0;endFill=0;exitX=0.5;exitY=1;exitDx=0;exitDy=0;entryX=1;entryY=0.5;entryDx=0;entryDy=0;entryPerimeter=0;exitPerimeter=0;" edge="1" parent="1" source="NWOTXmCQD8BNrwnp2sz9-14" target="NWOTXmCQD8BNrwnp2sz9-15">
          <mxGeometry width="50" height="50" relative="1" as="geometry">
            <mxPoint x="560" y="265" as="sourcePoint" />
            <mxPoint x="560" y="302" as="targetPoint" />
            <Array as="points">
              <mxPoint x="550" y="360" />
            </Array>
          </mxGeometry>
        </mxCell>
        <mxCell id="NWOTXmCQD8BNrwnp2sz9-22" value="" style="endArrow=open;html=1;rounded=0;endFill=0;exitX=0.5;exitY=1;exitDx=0;exitDy=0;entryX=1;entryY=0.5;entryDx=0;entryDy=0;entryPerimeter=0;exitPerimeter=0;" edge="1" parent="1" source="NWOTXmCQD8BNrwnp2sz9-15" target="NWOTXmCQD8BNrwnp2sz9-16">
          <mxGeometry width="50" height="50" relative="1" as="geometry">
            <mxPoint x="560" y="352" as="sourcePoint" />
            <mxPoint x="400" y="369" as="targetPoint" />
            <Array as="points">
              <mxPoint x="350" y="400" />
            </Array>
          </mxGeometry>
        </mxCell>
        <mxCell id="NWOTXmCQD8BNrwnp2sz9-23" value="" style="endArrow=open;html=1;rounded=0;endFill=0;exitX=0.5;exitY=1;exitDx=0;exitDy=0;entryX=0;entryY=0.5;entryDx=0;entryDy=0;entryPerimeter=0;exitPerimeter=0;" edge="1" parent="1" source="NWOTXmCQD8BNrwnp2sz9-16" target="NWOTXmCQD8BNrwnp2sz9-17">
          <mxGeometry width="50" height="50" relative="1" as="geometry">
            <mxPoint x="570" y="362" as="sourcePoint" />
            <mxPoint x="410" y="379" as="targetPoint" />
            <Array as="points">
              <mxPoint x="170" y="440" />
            </Array>
          </mxGeometry>
        </mxCell>
        <mxCell id="NWOTXmCQD8BNrwnp2sz9-24" value="" style="endArrow=open;html=1;rounded=0;endFill=0;exitX=0.5;exitY=1;exitDx=0;exitDy=0;exitPerimeter=0;entryX=0.5;entryY=0;entryDx=0;entryDy=0;" edge="1" parent="1" source="NWOTXmCQD8BNrwnp2sz9-17" target="NWOTXmCQD8BNrwnp2sz9-26">
          <mxGeometry width="50" height="50" relative="1" as="geometry">
            <mxPoint x="560" y="265" as="sourcePoint" />
            <mxPoint x="730" y="490" as="targetPoint" />
          </mxGeometry>
        </mxCell>
        <mxCell id="NWOTXmCQD8BNrwnp2sz9-25" value="" style="ellipse;whiteSpace=wrap;html=1;aspect=fixed;fillColor=#000000;" vertex="1" parent="1">
          <mxGeometry x="720" y="510" width="20" height="20" as="geometry" />
        </mxCell>
        <mxCell id="NWOTXmCQD8BNrwnp2sz9-26" value="" style="ellipse;whiteSpace=wrap;html=1;aspect=fixed;fillColor=none;" vertex="1" parent="1">
          <mxGeometry x="713.38" y="503.37" width="33.25" height="33.25" as="geometry" />
        </mxCell>
        <mxCell id="NWOTXmCQD8BNrwnp2sz9-28" value="" style="endArrow=none;html=1;rounded=0;strokeColor=#808080;" edge="1" parent="1">
          <mxGeometry width="50" height="50" relative="1" as="geometry">
            <mxPoint x="260" y="580" as="sourcePoint" />
            <mxPoint x="260" as="targetPoint" />
          </mxGeometry>
        </mxCell>
        <mxCell id="NWOTXmCQD8BNrwnp2sz9-29" value="" style="endArrow=none;html=1;rounded=0;strokeColor=#808080;" edge="1" parent="1">
          <mxGeometry width="50" height="50" relative="1" as="geometry">
            <mxPoint x="90" y="580" as="sourcePoint" />
            <mxPoint x="90" as="targetPoint" />
          </mxGeometry>
        </mxCell>
        <mxCell id="NWOTXmCQD8BNrwnp2sz9-30" value="" style="endArrow=none;html=1;rounded=0;strokeColor=#808080;" edge="1" parent="1">
          <mxGeometry width="50" height="50" relative="1" as="geometry">
            <mxPoint x="460" y="580" as="sourcePoint" />
            <mxPoint x="460" as="targetPoint" />
          </mxGeometry>
        </mxCell>
        <mxCell id="NWOTXmCQD8BNrwnp2sz9-31" value="" style="endArrow=none;html=1;rounded=0;strokeColor=#808080;" edge="1" parent="1">
          <mxGeometry width="50" height="50" relative="1" as="geometry">
            <mxPoint x="650" y="580" as="sourcePoint" />
            <mxPoint x="650" as="targetPoint" />
          </mxGeometry>
        </mxCell>
        <mxCell id="NWOTXmCQD8BNrwnp2sz9-32" value="" style="endArrow=none;html=1;rounded=0;strokeColor=#808080;" edge="1" parent="1">
          <mxGeometry width="50" height="50" relative="1" as="geometry">
            <mxPoint x="800" y="580" as="sourcePoint" />
            <mxPoint x="800" as="targetPoint" />
          </mxGeometry>
        </mxCell>
        <mxCell id="NWOTXmCQD8BNrwnp2sz9-33" value="" style="endArrow=none;html=1;rounded=0;strokeColor=#808080;" edge="1" parent="1">
          <mxGeometry width="50" height="50" relative="1" as="geometry">
            <mxPoint x="800" y="80" as="sourcePoint" />
            <mxPoint x="90" y="80" as="targetPoint" />
          </mxGeometry>
        </mxCell>
      </root>
    </mxGraphModel>
  </diagram>
</mxfile>
